<?xml version="1.0" standalone="no"?>
<!DOCTYPE svg PUBLIC "-//W3C//DTD SVG 20010904//EN"
 "http://www.w3.org/TR/2001/REC-SVG-20010904/DTD/svg10.dtd">
<svg version="1.0" xmlns="http://www.w3.org/2000/svg"
 width="500.000000pt" height="500.000000pt" viewBox="0 0 500.000000 500.000000"
 preserveAspectRatio="xMidYMid meet">

<g transform="translate(0.000000,500.000000) scale(0.100000,-0.100000)"
fill="#000000" stroke="none">
<path d="M1619 3373 c-45 -48 -87 -105 -121 -163 -61 -105 -108 -192 -108
-201 0 -5 -4 -9 -10 -9 -5 0 -7 -8 -3 -17 3 -10 3 -15 -2 -11 -4 4 -16 -8 -26
-27 -10 -19 -35 -56 -54 -82 -19 -27 -46 -63 -59 -82 -53 -70 -144 -166 -216
-224 -41 -34 -77 -64 -80 -67 -3 -3 -41 -30 -85 -58 -145 -95 -194 -147 -180
-192 4 -13 22 -19 73 -24 64 -7 152 -39 152 -56 0 -4 11 -15 25 -24 24 -16 29
-14 177 58 84 40 197 94 250 120 96 45 139 55 168 36 8 -5 29 -35 45 -67 27
-52 34 -58 65 -61 19 -2 68 4 107 14 l72 18 3 130 3 130 50 3 c28 2 73 8 102
14 28 5 76 10 105 11 29 0 58 3 63 6 6 4 24 7 40 9 17 1 71 5 120 10 108 10
408 0 520 -16 189 -28 296 -65 309 -109 3 -9 10 -51 16 -92 6 -41 13 -83 16
-92 7 -24 44 -32 108 -24 78 9 116 25 116 48 0 10 -4 16 -10 13 -5 -3 -30 -7
-55 -9 l-45 -2 -2 75 -2 76 -6 -80 -6 -80 -2 93 c-1 53 -6 92 -12 92 -5 0 -10
5 -10 11 0 5 5 7 10 4 6 -3 10 1 10 9 0 9 9 16 21 16 12 0 17 -4 13 -11 -4 -8
3 -10 22 -7 16 3 23 3 16 1 -18 -6 5 -33 27 -32 10 0 12 2 3 6 -13 5 -7 23 9
23 14 0 11 -38 -3 -43 -10 -3 -10 -7 0 -19 8 -10 10 -31 5 -63 -4 -30 -2 -46
3 -42 6 3 11 38 12 78 3 86 9 98 18 40 6 -35 14 -48 27 -38 2 1 10 -3 18 -9 8
-6 27 -14 42 -18 37 -9 291 -118 389 -167 84 -42 104 -46 133 -25 18 13 13 18
-65 69 -149 96 -313 182 -437 229 -29 11 -53 23 -53 28 0 4 -9 10 -20 13 -11
3 -18 1 -14 -4 3 -5 0 -9 -5 -9 -6 0 -11 5 -11 11 0 5 -4 8 -9 5 -15 -10 -40
5 -35 19 4 10 -1 12 -16 8 -12 -3 -47 0 -78 8 -48 11 -53 14 -32 20 21 6 19 7
-15 10 -22 1 -51 2 -65 1 -20 -1 -22 1 -10 9 12 9 10 10 -7 6 -13 -3 -26 -1
-29 4 -3 5 -15 9 -27 9 -12 0 -31 7 -41 15 -11 8 -28 15 -38 15 -10 0 -18 5
-18 10 0 6 -12 8 -27 5 l-28 -5 28 11 c15 6 27 15 27 20 0 12 -27 12 -35 -1
-3 -5 -13 -10 -21 -10 -8 0 -12 5 -9 10 12 19 -22 10 -41 -11 -18 -20 -18 -20
11 -15 27 6 28 6 7 -4 -15 -6 -35 -7 -55 -1 -26 8 -28 9 -9 10 32 1 57 29 54
58 -3 21 0 23 45 25 26 1 60 1 74 0 15 -1 32 4 38 11 8 11 -6 13 -77 11 -48
-2 -76 0 -62 3 14 3 28 9 31 14 3 5 30 11 60 14 30 2 43 2 29 -1 -14 -3 -29
-10 -35 -16 -7 -7 -3 -8 13 -3 36 10 91 13 94 4 2 -4 29 -10 61 -12 88 -6 55
9 -72 35 -86 17 -116 19 -119 10 -2 -7 -18 -12 -35 -12 -25 0 -29 -3 -17 -10
11 -8 6 -10 -20 -8 -19 2 -33 7 -30 13 3 5 8 9 13 8 4 -2 7 2 7 8 0 7 10 9 28
5 20 -5 23 -4 12 4 -8 5 -28 7 -44 4 -16 -3 -31 -1 -35 4 -8 13 -342 35 -420
28 -31 -3 -96 -8 -146 -11 -150 -9 -320 -39 -489 -85 -61 -16 -112 -27 -114
-25 -6 5 44 25 62 25 7 0 27 5 45 11 l31 11 0 122 0 121 -30 1 c-17 1 -39 8
-48 17 -9 8 -23 12 -29 10 -7 -3 -13 0 -13 7 0 6 -4 8 -10 5 -6 -4 -10 16 -10
52 0 86 -18 106 -34 38 -4 -16 -23 -63 -43 -104 l-35 -74 1 -141 1 -141 -157
-77 c-87 -42 -200 -101 -250 -131 -51 -31 -93 -54 -93 -52 0 2 28 23 63 48 62
45 157 138 157 154 0 5 9 19 21 32 129 138 289 379 289 435 0 12 -6 31 -14 41
-12 16 -10 26 12 74 49 110 80 191 73 191 -4 0 -23 -17 -42 -37z m-49 -229 c0
-3 -9 -17 -20 -31 -23 -29 -25 -25 -8 12 10 22 28 35 28 19z m10 -33 c0 -19
-12 -41 -20 -36 -10 6 -1 45 11 45 5 0 9 -4 9 -9z m1247 -337 c-3 -3 -12 -4
-19 -1 -8 3 -5 6 6 6 11 1 17 -2 13 -5z m39 -31 c-3 -3 -13 -2 -23 2 -17 7
-17 8 2 15 19 7 34 -5 21 -17z m-121 -33 c3 -5 1 -10 -4 -10 -6 0 -11 5 -11
10 0 6 2 10 4 10 3 0 8 -4 11 -10z m218 -77 c-7 -2 -19 -2 -25 0 -7 3 -2 5 12
5 14 0 19 -2 13 -5z m57 -13 c0 -13 -11 -13 -30 0 -12 8 -11 10 8 10 12 0 22
-4 22 -10z m217 -242 c-2 -13 -4 -3 -4 22 0 25 2 35 4 23 2 -13 2 -33 0 -45z"/>
<path d="M3198 3363 c-15 -16 -56 -72 -93 -127 -36 -54 -76 -113 -89 -130 -61
-82 -41 -74 53 22 57 57 89 100 124 170 49 94 50 113 5 65z"/>
<path d="M3195 3124 c-11 -20 -49 -63 -85 -96 -60 -56 -63 -60 -34 -54 30 7
33 4 53 -37 31 -65 42 -105 29 -113 -6 -4 -1 -12 13 -20 36 -20 57 -17 61 9 6
42 -3 347 -10 347 -4 0 -16 -16 -27 -36z"/>
<path d="M1816 3141 c-3 -5 -3 -16 0 -25 3 -9 0 -24 -7 -33 -10 -12 -10 -15
-1 -9 8 5 12 -1 12 -19 0 -37 96 -143 150 -165 17 -7 30 -16 30 -20 0 -4 12
-12 28 -19 32 -13 207 -1 207 14 -1 6 -24 19 -54 29 -37 14 -49 22 -39 28 9 6
6 7 -9 3 -13 -4 -23 -2 -23 4 0 5 -14 12 -31 16 -20 5 -29 12 -25 20 3 9 0 12
-9 9 -22 -9 -91 41 -177 129 -25 26 -49 43 -52 38z"/>
<path d="M3384 3118 c7 -47 20 -191 18 -201 -2 -5 2 -6 7 -2 6 3 15 -5 22 -17
7 -12 35 -46 64 -75 28 -29 50 -55 47 -58 -3 -3 2 -5 12 -5 9 0 15 -4 12 -9
-3 -4 13 -23 35 -42 23 -19 53 -44 68 -57 14 -12 67 -43 116 -69 50 -25 108
-57 130 -70 33 -20 28 -13 -25 34 -137 122 -245 231 -315 318 -71 89 -175 246
-175 264 0 6 -5 13 -11 16 -7 5 -9 -4 -5 -27z"/>
<path d="M1786 3105 c-9 -26 -7 -32 5 -12 6 10 9 21 6 23 -2 3 -7 -2 -11 -11z"/>
<path d="M2840 2959 c-41 -21 -82 -38 -91 -39 -23 0 -19 -30 3 -30 11 0 17 4
13 9 -3 6 29 27 72 47 85 40 88 42 82 47 -2 2 -38 -13 -79 -34z"/>
<path d="M2976 2944 c-10 -25 -89 -55 -127 -47 -30 6 -33 5 -21 -9 10 -13 10
-17 0 -21 -7 -3 4 -6 25 -6 23 -1 51 8 75 23 52 33 83 62 75 70 -11 10 -21 7
-27 -10z"/>
<path d="M2207 2939 c7 -7 15 -10 18 -7 3 3 -2 9 -12 12 -14 6 -15 5 -6 -5z"/>
<path d="M2850 2938 c-23 -10 -23 -11 -5 -16 10 -2 21 1 23 7 2 6 9 8 14 5 7
-4 8 -2 4 4 -4 7 -8 12 -9 11 -1 0 -13 -5 -27 -11z"/>
<path d="M2188 2903 c7 -3 16 -2 19 1 4 3 -2 6 -13 5 -11 0 -14 -3 -6 -6z"/>
<path d="M2868 2903 c7 -3 16 -2 19 1 4 3 -2 6 -13 5 -11 0 -14 -3 -6 -6z"/>
<path d="M2658 2893 c-10 -2 -18 -8 -18 -13 0 -8 69 6 79 16 6 5 -39 3 -61 -3z"/>
<path d="M2358 2883 c7 -3 16 -2 19 1 4 3 -2 6 -13 5 -11 0 -14 -3 -6 -6z"/>
<path d="M2778 2873 c6 -2 18 -2 25 0 6 3 1 5 -13 5 -14 0 -19 -2 -12 -5z"/>
<path d="M3373 2810 c0 -36 2 -50 4 -32 2 17 2 47 0 65 -2 17 -4 3 -4 -33z"/>
<path d="M3275 2810 c-8 -13 3 -30 18 -30 8 0 7 3 -2 9 -7 5 -10 14 -7 20 4 6
5 11 2 11 -3 0 -8 -4 -11 -10z"/>
<path d="M3295 2710 c27 -12 43 -12 25 0 -8 5 -22 9 -30 9 -10 0 -8 -3 5 -9z"/>
<path d="M3400 2700 c-11 -8 -7 -9 14 -4 16 4 27 3 24 -2 -4 -5 10 -10 31 -10
l36 -2 -35 13 c-44 17 -51 17 -70 5z"/>
<path d="M3520 2670 c0 -5 5 -10 11 -10 5 0 7 5 4 10 -3 6 -8 10 -11 10 -2 0
-4 -4 -4 -10z"/>
<path d="M3550 2656 c0 -2 7 -7 16 -10 8 -3 12 -2 9 4 -6 10 -25 14 -25 6z"/>
<path d="M3305 2560 c-3 -5 1 -10 9 -10 9 0 16 5 16 10 0 6 -4 10 -9 10 -6 0
-13 -4 -16 -10z"/>
<path d="M3287 2443 c-11 -10 -8 -33 3 -33 6 0 10 6 10 14 0 8 6 17 13 19 8 4
6 6 -4 6 -9 1 -19 -2 -22 -6z"/>
<path d="M4120 2288 c-59 -31 -65 -49 -10 -35 30 8 52 8 85 -1 54 -14 102 -16
110 -3 9 16 -54 53 -98 58 -31 3 -54 -2 -87 -19z"/>
<path d="M1203 2053 c-18 -21 -33 -44 -33 -52 0 -8 16 -29 35 -47 34 -31 35
-33 36 -115 2 -126 8 -143 47 -147 19 -2 50 6 77 19 l45 23 0 140 c0 119 2
137 13 121 13 -17 17 -17 60 -2 44 15 46 15 38 -1 -5 -9 -9 -57 -10 -107 -1
-49 -4 -105 -7 -123 -4 -21 -1 -41 11 -58 17 -26 18 -26 118 -22 131 6 197 33
197 78 l0 30 -90 0 c-96 0 -113 9 -91 47 10 17 10 17 11 -1 0 -16 5 -17 33
-11 61 13 112 18 105 10 -5 -5 2 -13 15 -19 14 -8 26 -26 33 -56 8 -36 17 -48
45 -62 47 -25 83 -22 161 11 37 16 66 24 65 19 -4 -22 56 -29 101 -12 l42 16
0 69 c0 69 0 69 23 57 47 -27 57 -41 57 -80 0 -78 27 -93 107 -60 l43 17 0
178 0 177 -33 0 c-69 0 -131 -127 -63 -131 11 -1 2 -6 -21 -11 -23 -6 -57 -8
-77 -4 l-35 7 -3 67 -3 67 -32 3 c-38 4 -52 -18 -76 -118 -19 -79 -20 -135 -1
-151 14 -11 20 -39 8 -39 -3 0 -14 10 -23 22 -17 20 -19 21 -42 5 -13 -10 -41
-17 -62 -17 -31 0 -46 7 -73 34 -30 30 -34 40 -34 84 0 36 6 56 21 73 12 14
19 18 16 8 -3 -9 1 -16 9 -16 8 0 14 5 14 11 0 7 3 7 8 1 26 -35 41 -38 84
-12 24 14 51 34 61 45 18 19 17 20 -9 41 -36 28 -64 34 -129 29 -90 -8 -168
-78 -182 -165 -6 -38 -23 -44 -23 -8 0 23 -3 24 -72 27 l-73 3 -3 33 c-2 18 1
32 7 32 6 0 11 -6 11 -13 0 -17 66 -8 123 16 31 13 37 21 37 46 l0 31 -128 0
c-126 0 -129 0 -142 -25 -14 -27 -30 -24 -30 6 0 18 -8 19 -142 19 l-143 -1
-32 -36z"/>
<path d="M2656 2061 c-27 -29 -28 -32 -33 -175 -8 -192 -6 -196 91 -196 39 0
87 5 106 10 55 15 129 67 141 97 14 38 -4 96 -37 118 l-26 17 21 14 c32 23 28
78 -8 115 -29 28 -32 29 -128 29 -97 0 -100 -1 -127 -29z m158 -97 l31 -13
-42 -1 c-42 0 -43 1 -43 33 1 27 2 29 11 14 6 -11 25 -25 43 -33z m5 -149 c53
-9 43 -25 -15 -25 l-44 0 1 38 c0 31 2 33 9 15 6 -15 21 -23 49 -28z"/>
<path d="M2980 2075 c0 -8 -5 -15 -11 -15 -20 0 -4 -93 27 -156 27 -54 32 -74
34 -129 3 -69 16 -76 90 -53 l40 13 0 69 c0 60 5 77 37 138 31 57 40 66 49 53
6 -8 21 -15 32 -15 37 0 52 -47 52 -160 0 -115 3 -120 75 -100 l45 13 0 111
c0 151 1 152 58 152 l47 -1 -3 -136 c-4 -176 -5 -173 127 -167 57 3 113 12
139 23 36 15 42 21 42 46 l0 29 -90 0 -90 0 0 31 c0 24 3 29 13 21 12 -10 28
-6 105 28 25 11 32 20 32 42 l0 28 -74 0 c-77 0 -91 7 -82 38 5 14 14 17 43
14 24 -2 56 5 86 18 41 18 47 25 47 50 l0 30 -124 0 c-109 0 -125 -2 -131 -17
-6 -17 -7 -17 -16 0 -9 15 -29 17 -194 17 l-184 0 -36 -47 c-23 -30 -33 -53
-29 -65 12 -40 -13 -14 -46 47 -33 62 -37 65 -72 65 -27 0 -38 -4 -38 -15z"/>
</g>
</svg>
